<?xml version="1.0" encoding="UTF-8"?>
<svg width="1200pt" height="1200pt" version="1.1" viewBox="0 0 1200 1200" xmlns="http://www.w3.org/2000/svg">
 <path d="m60 0h1080c33.137 0 60 33.137 60 60v1080c0 33.137-26.863 60-60 60h-1080c-33.137 0-60-33.137-60-60v-1080c0-33.137 26.863-60 60-60z" fill="#ffd65b"/>
 <path d="m952.67 970.02h-394.28l411.62-411.62v394.28c0 9.5664-7.7773 17.344-17.344 17.344zm-443.32 0h-254.81l715.47-715.5v254.83l-460.66 460.66zm-279.34-24.531v-254.81l460.66-460.66h254.83l-715.5 715.47zm0-303.87v-394.28c0-9.5664 7.7773-17.344 17.344-17.344h394.28z" fill-rule="evenodd"/>
</svg>
